<?xml version="1.0" encoding="UTF-8"?>
<svg id="svg176" xmlns="http://www.w3.org/2000/svg" version="1.1" xmlns:svg="http://www.w3.org/2000/svg" viewBox="0 0 130.82 141.23">
  <!-- Generator: Adobe Illustrator 30.2.1, SVG Export Plug-In . SVG Version: 2.1.1 Build 1)  -->
  <defs>
    <style>
      .st0 {
        fill: none;
        stroke: #000;
        stroke-width: .2px;
      }

      .st1 {
        fill: #70777f;
      }

      .st2 {
        fill: gold;
      }
    </style>
  </defs>
  <g id="Third_Floor">
    <g id="Floor-3">
      <path class="st1" d="M25.29,10.24v.91h5.1v12.04h-5.1v.88h59.67v-.88h-50.65v-12.04h62.53v-.91H25.29ZM94.82,24.55v.23H25.29s0,.9,0,.9h25.15v12.21h-13.16s0,.9,0,.9h3.21l-.06,1.71h-7.04v-1.03h-4.61v.14s-.02.14-.02.14h-4.18v3.23h6.51v3.63h-.17v-3.38h-4.93v6.1h4.93v-1.83h.17v4.01h-.17v-1.83h-4.93v4.62l4.93-.19v-1.83h.17v4.06h-.17v-2l-4.93.21v11.01h4.93v-3.51h.17v3.76h-3.25s-3.25,0-3.25,0v3.23h6.91v.3H3.9v48.05s14.41,0,14.41,0v-2.02h-.3v-43.87h15.95v27.96s.9,0,.9,0v-10.1h14.74v10.1s.9,0,.9,0v-54.12h.65v54.12s16.55,0,16.55,0v-56.07h1.48v56.07s16.55,0,16.55,0v-47.9h.56v47.9s.9,0,.9,0v-15.07h14.74v15.07s.9,0,.9,0v-47.9h.52v-11.86h-19.31v.81h-16.35v-.5h-.31l.13-.2-.59-.4.33-.5-.17-.12h29.84s0-14.25,0-14.25h-2.12ZM54.33,25.68h40.49v12.21h-40.49v-12.21ZM41.46,38.79h24.88s-.2.3-.2.3l.27.18-.37.55.35.23.05-.07.36.24v.29h-24.57s-.84,0-.84,0l.06-1.71ZM33.38,43.38h.58v25.96h-.58v-25.96ZM34.87,43.38h13.7v.26h-1.85v1.7h2.9v39.45h-14.75v-41.41ZM49.83,43.39h1.33v.26h-1.33v-.26ZM52.06,43.39h14.74v9.68h-14.74v-9.68ZM70.09,43.39h13.97v8.17h.78v20.53h-14.74v-28.7ZM87.2,51.56h14.74v28.25h-14.74v-28.25ZM52.73,55.2h13.38v.5h-13.38v-.5ZM30.91,57.13h.17v4.12h-.17v-4.12ZM52.06,57.82h14.74v39.67h-14.74v-39.67ZM13.81,71.5h3.3v3.04h-.3v2.07h.3v22.37H4.8v-25.48h9.01v-2.01ZM70.09,76.66h14.74v20.68h-14.75v-.08h.19v-1.89h-.19v-18.7ZM4.8,102.84h12.3v12.53H4.8v-12.53Z"/>
    </g>
    <g id="Wall-3">
      <path class="st0" d="M33.46,43.39v-.51"/>
      <path class="st0" d="M33.46,41.18v-.68"/>
      <path class="st0" d="M11.09,72.04h.93v-2.69"/>
      <path class="st0" d="M9.54,72.04h-4.98v-2.69"/>
      <path class="st0" d="M30.91,60.5h-2.19"/>
    </g>
    <g id="Stairs-3">
      <g id="Stairs-3-down">
        <path id="stair-127" class="st2" d="M30.34,39.71h-6.36v3.2h6.36v-3.2ZM28.77,41.23v.15h-3.31v-.15h3.31Z"/>
        <path id="stair-128" class="st2" d="M30.34,65.87h-6.36v3.2h6.36v-3.2ZM28.77,67.39v.15h-3.31v-.15h3.31Z"/>
        <path id="stair-69" class="st2" d="M18.21,111.32v6.07h2.74v-6.07h-2.74ZM19.52,112.48h.13v3.74h-.13v-3.74Z"/>
        <path id="stair-96" class="st2" d="M14.18,69.46v5.85h2.74v-5.85h-2.74ZM15.48,70.59h.13v3.6h-.13v-3.6Z"/>
        <path id="stair-97" class="st2" d="M52.09,93.47v6.05h2.74v-6.05h-2.74ZM53.39,94.63h.13v3.72h-.13v-3.72Z"/>
        <path id="stair-100" class="st2" d="M70.33,93.47v6.05h2.74v-6.05h-2.74ZM71.64,94.63h.13v3.72h-.13v-3.72Z"/>
        <path id="stair-101" class="st2" d="M96.73,21.85h-5.85v2.74h5.85v-2.74ZM95.6,23.16v.13h-3.6v-.13h3.6Z"/>
        <path id="stair-129" class="st2" d="M46.68,43.54v6.05h2.74v-6.05h-2.74ZM47.99,44.7h.13v3.73h-.13v-3.73Z"/>
      </g>
    </g>
  </g>
</svg>