<?xml version="1.0" encoding="UTF-8"?>
<svg id="svg176" xmlns="http://www.w3.org/2000/svg" version="1.1" xmlns:svg="http://www.w3.org/2000/svg" viewBox="0 0 130.82 141.23">
  <!-- Generator: Adobe Illustrator 30.2.1, SVG Export Plug-In . SVG Version: 2.1.1 Build 1)  -->
  <defs>
    <style>
      .st0 {
        fill: #70777f;
      }

      .st1 {
        fill: gold;
      }

      .st2 {
        fill: #1a2632;
      }
    </style>
  </defs>
  <g id="Basement">
    <g id="Floor-b">
      <path class="st0" d="M78.96,44.17h1.53v6.64h-1.53v-6.64Z"/>
      <path class="st0" d="M74.89,44.17h1.53v6.64h-1.53v-6.64Z"/>
      <path class="st0" d="M94.74,0v10.1s.71,0,.71,0v.29h-.71v8.15h-4.22v3.47h-7.82v5.46h-7.44v.99h-6.15v-15.89h-8.79v-.63h.5v-5.63h-7.65v2.92h4.75v3.34h-4.75v17.88h8.97v11.38h2.94v9.43h.35v.65h-19.74v4.19h-19.71v-10.91h7.14v-5.48h-7.62v1.7h3.24v1.78h-4.78v25.83h6.64v.6h-12.85v2.6h-.61v-.31h-4.36v3.93h-.3v-.35h-4.35v1.04H2.97v-7.21H0v9.2h12.49v-.45h.6v.46h4.06v-.52h.62v.47h3.18v-6.57h-1.2v-.29h8v-.86h.3v7.75h2.06v9.09h-6.09l.02,8.27h-.67v-2h-5.59v7.47h5.59v-4.4h.68v2.51s6.14.03,6.14.03l-.03,14.82-6.37-.03v3.03l6.65.03v.54h-6.46v4.3h9.15v-12.63h9.08v-14.31h-3.05v11.33h-6.03v-21.71h12.57v2.45h10.2v-8.42h9.21v5.49h3.03v-5.49h7.05v12.57h-6.45v6.9h13.81v-3.66l-7.36-.02v-.53h14.7s0,4.4,0,4.4h.94v.39h-1.75v1.48h-19.76v4.42h43.44v-4.42h-18.99v-1.48h-1.75v-.39h.86v-4.41h9.96v-21.79h-2.04v-12.47h-2v.6h-8.74v-6.59h8.74v.59h2v-.59h2.45v-19.01h.68v-7.4h-.68V9.22h-5.98v2.06h-.38v-.89h-.46v-.29h.46V2.02h2.62V0h-4.79ZM96.91,12.41h.38v.51h3.19s0,11.81,0,11.81h-3.57v-12.32ZM96.91,26.69h3.57v8.92h-3.23v.77h-9.02v.45h-.32v-.45h-4.79v-2.64h-5.88v-.54h-.44v-.23h.44s0-2.51,0-2.51h19.68v-3.76ZM64.12,30.45h11.14v2.5h.49v.24h-.49v.54h-1.95v5.56h5.8v.54h-14.99v-9.38ZM87.9,38.94h.32v.35h5.56v.57h-1.51v4.47h3.16v-5.04h5.04v12.63h-10.4v-2.03h1.07v-6.83h-4.96v6.83h.88v2.03h-8.39v-9.07h2.1v-3.01h-.57v-.54h7.71v-.35ZM68.12,42.85h8.59v9.07h-1.75v1.97h.79l-.02,6.59h-7.59v-6.59h.62v-1.97h-1.09v-.65h.44v-8.42ZM55.9,54.89h9.21v8.56h.44v.24h-.44v11.87h.44v.28h-9.65v-20.96ZM33.09,58.09h12.6v23.81h-12.57l-.04-12.28h-1.48v-.6h1.49v-10.94ZM67.68,63.46h19.38v5.16h2.97v-5.16h7.86v8.9h-22.7v3.5h-7.51v-.28h.46v-11.87h-.46v-.24Z"/>
    </g>
    <g id="Stairs-b">
      <g id="Connector-Ground_Floor">
        <path id="stair-1" class="st1" d="M39.14,95.3v11.28h3.05v-11.28h-3.05Z"/>
        <path id="stair-2" class="st1" d="M30.16,114.29h-6.6v3.01h6.6v-3.01Z"/>
        <path id="stair-3" class="st1" d="M23.79,120.32h2.87v1.52h-2.87v-1.52Z"/>
        <path id="stair-4" class="st1" d="M28.33,75.14v3.07h1.44v-3.07h-1.44Z"/>
        <path id="stair-7" class="st1" d="M75.19,95.25l9.07.02v2.95s-9.08-.02-9.08-.02v-2.95Z"/>
        <path id="stair-8" class="st1" d="M87.09,63.4v8.31h2.98v-8.31h-2.98Z"/>
        <path id="stair-220" class="st1" d="M86.18,49.89v-10.34h4.96v10.34h-4.96Z"/>
        <path id="stair-221" class="st1" d="M98.59,39.15h2.93v-1.26h-2.93v1.26Z"/>
        <path id="stair-222" class="st1" d="M98.46,9.62v1.42h2.94v-1.42h-2.94Z"/>
        <path id="stair-223" class="st1" d="M45.86,62.77h1.36v4.89h-1.36v-4.89Z"/>
        <path id="stair-224" class="st1" d="M54.41,60.03h1.36v4.89h-1.36v-4.89Z"/>
        <path id="stair-136" class="st1" d="M53.68,6.4h2.93v1.32h-2.93v-1.32Z"/>
        <path id="stair-140" class="st1" d="M33.33,94.62h-1.28v2.9h1.28v-2.9Z"/>
        <path id="stair-128" class="st1" d="M30.34,65.87h-6.36v3.2h6.36v-3.2ZM28.77,67.39v.15h-3.31v-.15h3.31Z"/>
        <path id="stair-127" class="st1" d="M30.34,39.71h-6.36v3.2h6.36v-3.2ZM28.77,41.23v.15h-3.31v-.15h3.31Z"/>
        <path id="stair-138" class="st1" d="M53.18,30.08h2.96v-1.23h-2.96v1.23Z"/>
        <path id="stair-139" class="st1" d="M78.18,37.66h-2.88v1.36h2.88v-1.36Z"/>
        <path id="stair-134" class="st1" d="M92.3,42.95v5.85h3.14v-5.85h-3.14ZM93.79,44.07h.15v3.6h-.15v-3.6Z"/>
        <path id="stair-143" class="st1" d="M.15,74.72v-2.93h1.41v2.93H.15Z"/>
      </g>
    </g>
    <g id="Wall-b">
      <path class="st2" d="M54.52,81.14c0,1.99-1.61,3.6-3.6,3.6-.95,0-1.87-.38-2.54-1.05-.67-.67-1.05-1.59-1.05-2.54s.38-1.87,1.05-2.54c.67-.67,1.59-1.05,2.54-1.05,1.99,0,3.6,1.61,3.6,3.6h0Z"/>
      <path class="st2" d="M54.52,58.88c0,1.99-1.61,3.6-3.6,3.6-.95,0-1.87-.38-2.54-1.05s-1.05-1.59-1.05-2.54.38-1.87,1.05-2.54,1.59-1.05,2.54-1.05c1.99,0,3.6,1.61,3.6,3.6h0Z"/>
      <path class="st2" d="M54.52,69.65c0,1.99-1.61,3.6-3.6,3.6-.95,0-1.87-.38-2.54-1.05s-1.05-1.59-1.05-2.54.38-1.87,1.05-2.54,1.59-1.05,2.54-1.05c1.99,0,3.6,1.61,3.6,3.6h0Z"/>
      <path class="st2" d="M91.7,87.01l1.46-6.35,2.03.47-1.46,6.35-2.03-.47Z"/>
      <path class="st2" d="M94.01,87.41l.37-2.16,2.05.35-.37,2.16-2.05-.35Z"/>
      <path class="st2" d="M89.85,85.41h1.67v1.74h-1.67v-1.74Z"/>
      <path class="st2" d="M90.26,84.82l.38-1.8,1.74.37-.38,1.8-1.74-.37Z"/>
      <path class="st2" d="M86.41,87.78h1.13v1.13h-1.13v-1.13Z"/>
      <path class="st2" d="M86.41,77.9h1.13v1.13h-1.13v-1.13Z"/>
      <path class="st2" d="M100.07,81.29h1.85v1.85h-1.85v-1.85Z"/>
      <path class="st2" d="M100.47,83.59h1.51v2.55h-1.51v-2.55Z"/>
      <path class="st2" d="M99.98,86.28h1.85v1.85h-1.85v-1.85Z"/>
    </g>
  </g>
</svg>