<?xml version="1.0" encoding="UTF-8"?>
<svg id="svg176" xmlns="http://www.w3.org/2000/svg" version="1.1" xmlns:svg="http://www.w3.org/2000/svg" viewBox="0 0 130.82 141.23">
  <!-- Generator: Adobe Illustrator 30.2.1, SVG Export Plug-In . SVG Version: 2.1.1 Build 1)  -->
  <defs>
    <style>
      .st0 {
        fill: none;
        stroke: #000;
        stroke-width: .2px;
      }

      .st1 {
        fill: #70777f;
      }

      .st2 {
        fill: gold;
      }

      .st3 {
        fill: #1a2632;
      }

      .st4 {
        fill: #c6c2c2;
      }
    </style>
  </defs>
  <g id="Ground_Floor">
    <g id="Floor">
      <path class="st1" d="M97.3,2.54v3.76h-47.21l-.41,2.95h8.16v.3h-16.42s-10.38,0-10.38,0v-.3h18.22l.4-2.95h-24.37v2.95h4.88v.3h-4.88v5.5H1.54v6.41h23.75v17.96h4.96v.34h-5.68v3.2h6.52v2.53h-4.08v.91h-.16v-.91h-5.75v4.96h5.75v-2.89h.15v2.89h2.32v.34h-6.16v7.59h6.11v.27h-6.11v7.06h8.43v.12h-6.98v3.21h6.68v.3H3.36v5.08h-.46v-5.1H.01v17.75h2.89v-11.75h.45v6.55s-.01,12.52-.01,12.52h-.44v-2.99H.04v29.83h3.28v4.85h4.72v-.61h.28v15.77h6.48v-20.65h.29v1.68h15.59v-2.17h2.59v-2.33h-1.49v-.38h1.56v-11.36s.02-11.45.02-11.45h5.78v6.03s.02,5.96.02,5.96h3.01v-6s.02-5.99.02-5.99h4.11v3.42h-.18v-3.24h-3.74v4.79h3.74v-.52h.18v.52h10.28v24.35h6.43v-24.35h20.32s20.1-.02,20.1-.02v-2.45h24.36v-6.41h-24.36v-11.58h.25v2.3h2.57v-1.96h.32v2.28h-2.89v4.97h17.86v-12.27l-2.01.12-.15-2.62,1.44-.1-.21-9.27-.8-2.48.55-4.2,1.07-4.21-.09-4.31,4.11-.57v-11.82h1.37v-6.15h-4.85v6.79h-8.52v-.3h7.83v-6.44l-19.74-.02v-5.68s.01-5.56.01-5.56l8.51-.03h8.48v-8.08h12.28V3.1h-12.28v-.55h-21.24ZM101.6,8.72h.95v.69h-.95v-.19h-4.35v1.53h-.3v-.5h-.57v-.7h-.31v-.3h.39v-.32h2.58s2.56-.02,2.56-.02v-.19ZM60.09,9.26h2.14v.3h-.76v.7h-.65v-.7h-.72v-.3ZM64.4,9.26h1.3v.3h-1.3v-.3ZM68.44,9.26h.99v.3h-.99v-.3ZM72.18,9.26h13.65v.3h-13.65v-.3ZM88.59,9.26h1.03v.3h-1.03v-.3ZM92.36,9.26h1l-.02.3h-.97v-.3ZM96.94,12.08h.3v14.23h-.31v-7.12s0-7.12,0-7.12ZM96.94,27.45h.31v.92h.65v.87h-.7v-.67h-.26v-1.11ZM82.37,33.54l1.09.02v3.02s.02,2.85.02,2.85h2.71v10.45h4.96v-10.51h3.27v.34h-2.14v3.18h3.17v-1.19h.76v.19h-.44v7.67h-.25v-.43h-3.38v2.15h3.38v-1.05h.25v1.06h2.95v.25h-14.63v-11.83h-10.79v-3.85h.38v3.45h9.33v-5.38h-.63v-.38ZM73.29,33.54l8.11.02v.36h-7.72v.97h-.38v-1.35ZM96.94,35.27h2.63v.3h-2.33v1.08h-.3v-1.38ZM100.72,35.27h4.5v17.3h-1.79v-.39h-.8v-.64h-2.91v-.25h3.62v-5.28h-5.85v-4.11h-.42v-.19h4.06v.19h-3.43v3.93h5.64v-3.93h-1.36v-.19h1.36v-1.98h-7.91v-.34h1.51v-1.57h.3v1.57h6.03v-3.8h-2.55v-.3ZM108.19,35.27h1.92v.3h-1.55v20.55h-4.9v3.35h3.24v.61h-.37v-.27h-2.85v.27h-.24v-4.58s2.57,0,2.57,0h2.17s0-20.22,0-20.22ZM36.93,38.59h.69v.56s-.02.62-.02.62h-4.18v3.7h-.34v-3.7h-1.6v-.34h5.46v-.84ZM60.81,38.59h.65v.81h2.96v.31h-3.61v-1.12ZM65.45,39.4h3.99v.87h-.88v11.25h.88v.65h-.88v11.22h.84v.69h-.84v11.18h.88v.33s-.02.33-.02.33h-.43s-.43.02-.43.02v1.14h-.3v-1.14h-.76v-.69h.76v-11.18h-.72v-.69h.72v-11.22h-.76v-.65h.76v-11.25h-.76v-.55h-2.04v-.31ZM.86,42.81v26.23h11.15v-2.69h5.28v2.69h5.6v-18.19h-2.12v-5.65h3.06v-2.39H.86ZM33.08,44.66h.34v22.09h-.34v-3s0-16.18,0-16.18v-2.91ZM103.44,60.94h.24v2.05h2.85v-2.05h.37v2.28h1.39v5.99h2.76v5.9h-4.47v2.78h-.32v-2.76h-2.57v3.05h-.25v-5.13s0-12.11,0-12.11ZM33.08,67.97h.34v.69l-.04.69-.04,10.24v10.24h-5.19v-.22s.02-.23.02-.23h4.83v-20.04h-.5v-.3h.58v-1.07ZM68.25,86.78h.3v.42h.88v.65h-.88v.3h-.3v-.3h-.76v-.65h.76v-.42ZM2.9,95.44h.46v4.07s-.02,4.07-.02,4.07h-.44v-8.14ZM2.9,104.65h.44v5.46h-.44v-5.46ZM2.9,111.17h.44v3.11s.02,3.1.02,3.1h2.38v.31h-2.84v-6.52ZM6.8,117.38h1.51v6.79h-.28v-6.49h-1.23v-.31ZM14.8,117.38h15.22v.38h-14.94v1.78h-.29v-2.16Z"/>
    </g>
    <g id="Ledge">
      <path class="st4" d="M45.92,52.65h9.77v34.11h-9.77v-34.11Z"/>
      <path class="st4" d="M78.86,43.32h1.53v6.64h-1.53v-6.64Z"/>
      <path class="st4" d="M73.97,43.32h1.53v6.64h-1.53v-6.64Z"/>
      <path class="st4" d="M33,69.34v20.04h-4.83v-20.04h4.83Z"/>
    </g>
    <g id="Obstacles">
      <path class="st3" d="M25.94,22.9h4.82v1.7h-4.82v-1.7Z"/>
      <path class="st3" d="M62.79,14.63h5.37v12.99h-5.37v-12.99Z"/>
      <path class="st3" d="M39.63,24.08h1.91v2.06h-1.91v-2.06Z"/>
      <path class="st3" d="M70.79,60.86h2.79v5.5h-2.79v-5.5Z"/>
      <path class="st3" d="M74.33,61.48l2.77.29-.58,5.47-2.77-.29.58-5.47Z"/>
      <path class="st3" d="M86.03,76.91l.97,2.62-5.15,1.91-.97-2.62,5.15-1.91Z"/>
      <path class="st3" d="M90.7,79.78h2.79v5.5h-2.79v-5.5Z"/>
      <path class="st3" d="M95.6,79h2.79v5.5h-2.79v-5.5Z"/>
      <path class="st3" d="M89.96,74.7h5.18v2.8h-5.18v-2.8Z"/>
      <path class="st3" d="M101.15,66.76h-2.47v6.19h2.47v-6.19Z"/>
      <path class="st3" d="M76.2,89.61l-1.82-5.25-1.81.63,1.82,5.25,1.81-.63Z"/>
      <path class="st3" d="M48.43,87.64l-4.8,2.12-.73-1.66,4.8-2.12.73,1.66Z"/>
      <path class="st3" d="M73.67,6.37c.16.01,1.89.08,1.89.08l-.04.98-1.89-.08.04-.98Z"/>
      <path class="st3" d="M22.69,16.86l-.2,1.69-4.81-.57.2-1.69,4.81.57Z"/>
      <path class="st3" d="M58.83,51.63l4.87.02v-1.7s-4.86-.02-4.86-.02v1.7Z"/>
      <path class="st3" d="M68.17,46.33l-4.84-.42-.15,1.68,4.84.42.15-1.68Z"/>
      <path class="st3" d="M65.16,41.07l-.03,4.87h1.67s.03-4.86.03-4.86h-1.67Z"/>
      <path class="st3" d="M54.08,14.63h5.29v12.99h-5.29v-12.99Z"/>
      <path class="st3" d="M96.63,53.51l-.07.52.21.03-.04.25-1.34-.19-.02.12,1.28.18-.07.53-1.28-.18-.02.12,1.34.19-.03.22-.21-.03-.08.54.96.13.04-.25,2.43.34.26-1.82-2.44-.34.03-.23-.95-.13Z"/>
      <path class="st3" d="M98.22,64.21v-.53s-.2,0-.2,0v-.25s1.36.04,1.36.04v-.12s-1.29-.03-1.29-.03v-.54s1.31.03,1.31.03v-.13s-1.35-.03-1.35-.03v-.22s.22,0,.22,0l.02-.54-.97-.03v.25s-2.46-.06-2.46-.06l-.05,1.84,2.46.06v.23s.95.03.95.03Z"/>
      <path class="st3" d="M92.07,55.38v-.53s-.2,0-.2,0v-.25s1.36.04,1.36.04v-.12s-1.29-.03-1.29-.03v-.54s1.31.03,1.31.03v-.13s-1.35-.03-1.35-.03v-.22s.22,0,.22,0l.02-.54-.97-.03v.25s-2.46-.06-2.46-.06l-.05,1.84,2.46.06v.23s.95.03.95.03Z"/>
      <path class="st3" d="M83.56,58.83l-.28-.44-.18.12-.13-.21,1.14-.72-.06-.1-1.09.69-.29-.45,1.09-.7-.07-.11-1.14.73-.12-.19.18-.11-.29-.46-.82.52.14.21-2.07,1.31.99,1.55,2.08-1.32.12.2.81-.51Z"/>
      <path class="st3" d="M33.63,91.2l.05.52.21-.02.02.25-1.34.11v.12s1.3-.11,1.3-.11l.05.54-1.29.11v.13s1.36-.11,1.36-.11l.02.22-.21.02.04.54.96-.08-.02-.25,2.44-.21-.15-1.83-2.46.21-.02-.23-.95.08Z"/>
      <path class="st3" d="M11.69,107.36l-.51-.15-.06.21-.24-.07.38-1.3-.11-.03-.36,1.24-.52-.15.36-1.24-.12-.04-.38,1.3-.21-.06.06-.21-.52-.15-.27.93.24.07-.68,2.35,1.76.51.69-2.37.22.07.27-.92Z"/>
      <path class="st3" d="M112.79,10.97l.05.52.21-.02.02.25-1.34.13v.12s1.3-.13,1.3-.13l.05.54-1.29.13v.13s1.36-.13,1.36-.13l.02.22-.21.02.05.54.96-.09-.02-.25,2.44-.24-.18-1.83-2.45.24-.02-.23-.95.09Z"/>
      <path class="st3" d="M109.09,7.51l.12-.51-.21-.05.06-.24,1.31.32.03-.12-1.25-.31.13-.52,1.26.31.03-.12-1.31-.32.05-.22.21.05.13-.52-.94-.23-.06.25-2.38-.59-.44,1.78,2.39.59-.06.22.93.23Z"/>
      <path class="st3" d="M78.48,42.35h2.42v6.37h-2.42v-6.37Z"/>
      <path class="st3" d="M37.04,66.1l.4-.34-.14-.16.19-.16.88,1.02.09-.08-.84-.98.41-.35.84.98.1-.08-.88-1.03.17-.14.14.16.41-.35-.63-.73-.19.17-1.59-1.86-1.4,1.2,1.6,1.87-.18.15.62.73Z"/>
      <path class="st3" d="M9.09,19.96l.19-.49-.2-.08.09-.23,1.25.5.04-.11-1.2-.48.2-.5,1.2.48.05-.12-1.26-.5.08-.21.2.08.2-.5-.9-.36-.09.24-2.27-.91-.68,1.71,2.29.92-.09.21.89.35Z"/>
      <path class="st3" d="M44.36,12.32l-.42.32.13.17-.2.15-.81-1.08-.09.07.78,1.03-.43.32-.78-1.03-.1.08.81,1.08-.18.13-.13-.17-.43.32.58.77.2-.15,1.47,1.96,1.47-1.1-1.48-1.97.18-.14-.57-.76Z"/>
      <path class="st3" d="M90.56,21.99l-.5.16.07.2-.24.08-.42-1.28-.11.04.4,1.23-.51.17-.4-1.23-.12.04.42,1.29-.21.07-.07-.2-.51.17.3.92.24-.08.76,2.33,1.75-.57-.76-2.34.22-.07-.29-.91Z"/>
      <path class="st3" d="M124.35,33.42l-.49.2.08.2-.23.1-.52-1.25-.11.05.5,1.19-.5.21-.5-1.2-.12.05.52,1.25-.21.09-.08-.2-.5.21.37.89.24-.1.94,2.26,1.7-.71-.95-2.28.21-.09-.37-.88Z"/>
      <path class="st3" d="M115.46,71.56l2.69-5.49,2.14,1.05-2.69,5.49-2.14-1.05Z"/>
      <path class="st3" d="M116.05,57.6h6.54v2.42h-6.54v-2.42Z"/>
      <path class="st3" d="M108.48,51.42h3.18v2.15h-3.18v-2.15Z"/>
      <path class="st3" d="M114.06,49.12l1.54-1.37,4.73,5.31-1.54,1.37-4.73-5.31Z"/>
      <path class="st3" d="M116.66,39.15v-3.14h2.15v3.14h-2.15Z"/>
      <path class="st3" d="M118.35,62.78l.12,3.16,2.08-.08-.12-3.16-2.08.08Z"/>
    </g>
    <g id="Stairs">
      <g id="Stairs-down">
        <path id="stair-1" class="st2" d="M39.14,95.3v11.28h3.05v-11.28h-3.05Z"/>
        <path id="stair-2" class="st2" d="M30.16,114.29h-6.6v3.01h6.6v-3.01Z"/>
        <path id="stair-3" class="st2" d="M23.79,120.32h2.87v1.52h-2.87v-1.52Z"/>
        <path id="stair-4" class="st2" d="M28.33,75.14v3.07h1.44v-3.07h-1.44Z"/>
        <path id="stair-7" class="st2" d="M75.19,95.25l9.07.02v2.95s-9.08-.02-9.08-.02v-2.95Z"/>
        <path id="stair-8" class="st2" d="M87.09,63.4v8.31h2.98v-8.31h-2.98Z"/>
        <path id="stair-220" class="st2" d="M86.18,49.89v-10.34h4.96v10.34h-4.96Z"/>
        <path id="stair-221" class="st2" d="M98.59,39.15h2.93v-1.26h-2.93v1.26Z"/>
        <path id="stair-222" class="st2" d="M98.46,9.62v1.42h2.94v-1.42h-2.94Z"/>
        <path id="stair-223" class="st2" d="M45.86,62.77h1.36v4.89h-1.36v-4.89Z"/>
        <path id="stair-224" class="st2" d="M54.41,60.03h1.36v4.89h-1.36v-4.89Z"/>
        <path id="stair-136" class="st2" d="M53.68,6.4h2.93v1.32h-2.93v-1.32Z"/>
        <path id="stair-140" class="st2" d="M33.33,94.62h-1.28v2.9h1.28v-2.9Z"/>
        <path id="stair-138" class="st2" d="M53.18,30.08h2.96v-1.23h-2.96v1.23Z"/>
        <path id="stair-139" class="st2" d="M78.18,37.66h-2.88v1.36h2.88v-1.36Z"/>
        <path id="stair-143" class="st2" d="M.15,74.72v-2.93h1.41v2.93H.15Z"/>
      </g>
      <g id="Stairs-up">
        <path id="stair-69" class="st2" d="M18.21,111.32v6.07h2.74v-6.07h-2.74ZM19.52,112.48h.13v3.74h-.13v-3.74Z"/>
        <path id="stair-96" class="st2" d="M14.18,69.46v5.85h2.74v-5.85h-2.74ZM15.48,70.59h.13v3.6h-.13v-3.6Z"/>
        <path id="stair-97" class="st2" d="M52.09,93.47v6.05h2.74v-6.05h-2.74ZM53.39,94.63h.13v3.72h-.13v-3.72Z"/>
        <path id="stair-100" class="st2" d="M70.33,93.47v6.05h2.74v-6.05h-2.74ZM71.64,94.63h.13v3.72h-.13v-3.72Z"/>
        <path id="stair-101" class="st2" d="M96.73,21.85h-5.85v2.74h5.85v-2.74ZM95.6,23.16v.13h-3.6v-.13h3.6Z"/>
        <path id="stair-129" class="st2" d="M46.68,43.54v6.05h2.74v-6.05h-2.74ZM47.99,44.7h.13v3.73h-.13v-3.73Z"/>
        <path id="stair-62" class="st2" d="M28.03,29.73h-2.73v-4.16h2.73"/>
        <path id="stair-127" class="st2" d="M30.34,39.71h-6.36v3.2h6.36v-3.2ZM28.77,41.23v.15h-3.31v-.15h3.31Z"/>
        <path id="stair-128" class="st2" d="M30.34,65.87h-6.36v3.2h6.36v-3.2ZM28.77,67.39v.15h-3.31v-.15h3.31Z"/>
        <path id="stair-63" class="st2" d="M24.73,87.38h2.91v1.28h-2.91"/>
        <path id="stair-130" class="st2" d="M24.74,72.32h2.91v1.28h-2.91"/>
        <path id="stair-131" class="st2" d="M84.05,42.67h-1.44s.01,3.73.01,3.73h1.44s-.01-3.73-.01-3.73Z"/>
        <path id="stair-132" class="st2" d="M83.38,39.42h1.23v-5.46h-1.23v5.46Z"/>
        <path id="stair-1401" data-name="stair-140" class="st2" d="M33.33,94.62h-1.28v2.9h1.28v-2.9Z"/>
        <path id="stair-141" class="st2" d="M47.73,94.66h-1.28v2.9h1.28v-2.9Z"/>
        <path id="stair-155" class="st2" d="M52.51,20.89v-3.45h-1.17v3.45h1.17Z"/>
        <path id="stair-226" class="st2" d="M70.98,25.55v-3.6h-1.17v3.6h1.17Z"/>
        <path id="stair-135" class="st2" d="M12.01,65.05h3.23v1.38h-3.23v-1.38Z"/>
      </g>
    </g>
    <g id="Wall">
      <path class="st0" d="M24.24,39.36"/>
      <path class="st0" d="M37.67,39.36"/>
      <path class="st0" d="M6.5,80.1l-.63-6.14,2.36-.21.55,6.14"/>
      <path class="st0" d="M8.35,87.36h6.1"/>
      <path class="st0" d="M8.35,89.83h6.1"/>
      <path class="st0" d="M5.57,98.25l11.22-3.88"/>
      <path class="st0" d="M6.44,100.66l11.01-3.96"/>
      <path class="st0" d="M36.87,34.89v-6.09"/>
      <path class="st0" d="M39.19,34.89v-6.09"/>
      <path class="st0" d="M40.1,23.43h6.17v-6.02"/>
      <path class="st0" d="M40.1,20.49h6.17"/>
      <path class="st0" d="M47.51,23.43h1.7v-6.02"/>
      <path class="st0" d="M97,28.57v5.22"/>
      <path class="st0" d="M97,34.82v.46"/>
      <path class="st0" d="M8.32,130.12h1.35"/>
      <path class="st0" d="M10.78,130.12h4.02"/>
      <path class="st0" d="M118.61,9.46v-4.24"/>
      <path class="st0" d="M3.16,119.69v1.54"/>
      <path class="st0" d="M59.06,99.64l3.95-.02"/>
      <path class="st0" d="M57.95,99.62h-1.37"/>
      <path class="st0" d="M103.5,95.67v1.41"/>
      <path class="st0" d="M103.5,90.66v3.94"/>
      <path class="st0" d="M115.72,94.63v-3.98"/>
      <path class="st0" d="M115.72,95.56v1.51"/>
      <path class="st0" d="M25.19,21.49v-4.41"/>
      <path class="st0" d="M25.19,15.99v-.93"/>
      <path class="st0" d="M12.51,17.08v4.41"/>
      <path class="st0" d="M12.51,15.99v-.93"/>
      <path class="st0" d="M57.42,39.36h-8.33"/>
      <path class="st0" d="M58.86,39.36h1.95"/>
      <path class="st0" d="M43.18,37.69l6.05.72"/>
      <path class="st0" d="M49.45,36.13l-6.05-.72"/>
      <path class="st0" d="M32.61,45.5h.46"/>
      <path class="st0" d="M31.56,45.5h-.46"/>
      <path class="st0" d="M46.31,43.22h-.62v4.17"/>
      <path class="st0" d="M45.69,49.09v.62h8.03v-6.48"/>
      <path class="st0" d="M53.72,41.83v-2.47"/>
      <path class="st0" d="M50.79,46.46v-7.1"/>
      <path class="st0" d="M47.93,43.22h2.78"/>
      <path class="st0" d="M118.61,3.96v-.87"/>
      <path class="st0" d="M89.02,92.69v-1.85h12.66v1.85"/>
      <path class="st0" d="M101.68,95.27v1.85h-12.66v-1.85"/>
      <path class="st0" d="M3.16,104.65v-1.07"/>
      <path class="st0" d="M8.32,117.46h1.35"/>
      <path class="st0" d="M10.78,117.46h4"/>
      <path class="st0" d="M65.7,9.4h2.75"/>
      <path class="st0" d="M69.43,9.4h2.75"/>
      <path class="st0" d="M85.83,9.4h2.75"/>
      <path class="st0" d="M89.62,9.4h2.75"/>
      <path class="st0" d="M93.35,9.4h2.71"/>
      <path class="st0" d="M3.48,45.67l-2.34.06-.07-2.62,6.04-.16.07,2.6-2.61.07"/>
      <path class="st0" d="M56.58,111.76h1.37"/>
      <path class="st0" d="M59.06,111.78l3.95-.02"/>
    </g>
    <g id="Building">
      <path class="st3" d="M54.54,81.08c0,.94-.37,1.84-1.04,2.51s-1.57,1.04-2.51,1.04-1.84-.37-2.51-1.04-1.04-1.57-1.04-2.51.37-1.84,1.04-2.51,1.57-1.04,2.51-1.04,1.84.37,2.51,1.04c.67.67,1.04,1.57,1.04,2.51Z"/>
      <path class="st3" d="M54.54,58.98c0,.94-.37,1.84-1.04,2.51s-1.57,1.04-2.51,1.04-1.84-.37-2.51-1.04-1.04-1.57-1.04-2.51.37-1.84,1.04-2.51c.67-.67,1.57-1.04,2.51-1.04s1.84.37,2.51,1.04c.67.67,1.04,1.57,1.04,2.51Z"/>
      <path class="st3" d="M54.54,69.69c0,.94-.37,1.84-1.04,2.51s-1.57,1.04-2.51,1.04-1.84-.37-2.51-1.04-1.04-1.57-1.04-2.51.37-1.84,1.04-2.51,1.57-1.04,2.51-1.04,1.84.37,2.51,1.04c.67.67,1.04,1.57,1.04,2.51Z"/>
      <path class="st3" d="M64.16,58.98c0,.77-.3,1.5-.85,2.05-.54.54-1.28.85-2.05.85s-1.5-.3-2.05-.85-.85-1.28-.85-2.05.3-1.5.85-2.05,1.28-.85,2.05-.85,1.5.3,2.05.85.85,1.28.85,2.05Z"/>
      <path class="st3" d="M64.16,81.08c0,.77-.3,1.5-.85,2.05-.54.54-1.28.85-2.05.85s-1.5-.3-2.05-.85c-.54-.54-.85-1.28-.85-2.05s.3-1.5.85-2.05,1.28-.85,2.05-.85,1.5.3,2.05.85c.54.54.85,1.28.85,2.05Z"/>
      <path class="st3" d="M64.16,69.69c0,.77-.3,1.5-.85,2.05s-1.28.85-2.05.85-1.5-.3-2.05-.85-.85-1.28-.85-2.05.3-1.5.85-2.05,1.28-.85,2.05-.85,1.5.3,2.05.85c.54.54.85,1.28.85,2.05Z"/>
      <path class="st3" d="M76.69,13.93v1.85h-.92v2.82h.92v1.81h7.07v-1.81h5.72v-2.82h-5.72v-1.85h-7.07Z"/>
    </g>
  </g>
</svg>