<?xml version="1.0" encoding="UTF-8"?>
<svg id="svg176" xmlns="http://www.w3.org/2000/svg" version="1.1" xmlns:svg="http://www.w3.org/2000/svg" viewBox="0 0 130.82 141.23">
  <!-- Generator: Adobe Illustrator 30.2.1, SVG Export Plug-In . SVG Version: 2.1.1 Build 1)  -->
  <defs>
    <style>
      .st0 {
        fill: none;
        stroke: #000;
        stroke-width: .2px;
      }

      .st1 {
        fill: #70777f;
      }

      .st2 {
        fill: gold;
      }

      .st3 {
        fill: #1a2632;
      }
    </style>
  </defs>
  <g id="Second_Floor">
    <g id="Floor-2">
      <path class="st1" d="M33.38,98.47v-1.01h-1.26v-2.86h14.19v4.88h-12.93v-1.01Z"/>
      <path class="st1" d="M51.19,15.38v2.08h1.32v9.99h18.55v-2.09h-1.32v-9.97h-18.55ZM59.02,17.46h4.5v7.89h-4.5v-7.89Z"/>
      <path class="st1" d="M73.34,33.56h10.13v5.85h-10.13v-5.85Z"/>
      <path class="st1" d="M25.27,29.67v9.72h5.05v.38h-5.75v3.21h6.64v.15h-12.59v11.87h2.02v2.56h-2.02v8.09h12.53v.19h-6.54v3.2h4.21s2.2,0,2.2,0v.28h-3.4v20.07h5.37v-20.07h-.25v-.28h.33v-3.21h-.95v-.19h.95v-22.51h-.95v-.15h.95v-3.21h-1.67v-.38h.8v-1.78h-2.69v-7.94h-4.25ZM22.13,51.3h8.96v6.22h-8.96v-1.18h.19v1.03h4.2v-2.86h-4.2v.76h-.19v-3.97Z"/>
      <path class="st1" d="M84.08,39.77l-9.38.03v2.92s9.33-.02,9.33-.02v-1.5h.36v.63h3.32v.19h-3.32v9.24h7.56v-.82h.23v.82h3.3v-.82h.31v.82h7.09v-5.15h-.89v-.28h.89v-5.71h-11.96v.16h-.18v-.16h-6.35v.12h-.31v-.45ZM90.74,41.14h.18v.53h1.36v1.18h3.19v-1.18h4.7v4.14h.94v.28h-5.32v3.46h-.31v-.43h-3.3v.43h-.23v-7.54h-3.34v-.19h2.13v-.68Z"/>
    </g>
    <g id="Obstacles-2">
      <path class="st3" d="M21.35,48.34h10.65v.76h-10.65v-.76Z"/>
      <path class="st3" d="M21,45.44h9.88v.76h-9.88v-.76Z"/>
      <path class="st3" d="M21.76,43.13h8.64v.42h-8.64v-.42Z"/>
      <path class="st3" d="M20.93,59.86h4.66v.56h-4.66v-.56Z"/>
      <path class="st3" d="M28.2,59.86h4.66v.56h-4.66v-.56Z"/>
      <path class="st3" d="M28.2,62.72h4.66v.56h-4.66v-.56Z"/>
      <path class="st3" d="M20.93,62.72h4.66v.56h-4.66v-.56Z"/>
      <path class="st3" d="M21.74,65.22h7.82v.42h-7.82v-.42Z"/>
      <path class="st3" d="M24.73,57.52h1.7v.42h-1.7v-.42Z"/>
    </g>
    <g id="Stairs-2">
      <g id="Stairs-2-down">
        <path id="stair-62" class="st2" d="M28.03,29.73h-2.73v-4.16h2.73"/>
        <path id="stair-63" class="st2" d="M24.73,87.38h2.91v1.28h-2.91"/>
        <path id="stair-130" class="st2" d="M24.74,72.32h2.91v1.28h-2.91"/>
        <path id="stair-131" class="st2" d="M84.05,42.67h-1.44s.01,3.73.01,3.73h1.44s-.01-3.73-.01-3.73Z"/>
        <path id="stair-132" class="st2" d="M83.38,39.42h1.23v-5.46h-1.23v5.46Z"/>
        <path id="stair-140" class="st2" d="M33.33,94.62h-1.28v2.9h1.28v-2.9Z"/>
        <path id="stair-141" class="st2" d="M47.73,94.66h-1.28v2.9h1.28v-2.9Z"/>
        <path id="stair-155" class="st2" d="M52.51,20.89v-3.45h-1.17v3.45h1.17Z"/>
        <path id="stair-226" class="st2" d="M70.98,25.55v-3.6h-1.17v3.6h1.17Z"/>
        <path id="stair-135" class="st2" d="M12.01,65.05h3.23v1.38h-3.23v-1.38Z"/>
        <path id="stair-134" class="st2" d="M92.3,42.95v5.85h3.14v-5.85h-3.14ZM93.79,44.07h.15v3.6h-.15v-3.6Z"/>
        <path class="st2" d="M24.39,56.18c.06-.13.06-.29.15-.38.05-.05.19-.03.25-.04.32-.08.51.13.8.21.21.06.42.04.52.22.03.05.17.25.12.37-.04.1-.15.13-.22.2-.07.07-.21.13-.3.15-.08.01-.51-.06-.62-.06-.11,0-.5-.04-.67-.22-.08-.08-.07-.37-.04-.44Z"/>
      </g>
      <g id="Stairs-2-up">
        <path id="stair-127" class="st2" d="M30.34,39.71h-6.36v3.2h6.36v-3.2ZM28.77,41.23v.15h-3.31v-.15h3.31Z"/>
        <path id="stair-128" class="st2" d="M30.34,65.87h-6.36v3.2h6.36v-3.2ZM28.77,67.39v.15h-3.31v-.15h3.31Z"/>
        <path id="stair-69" class="st2" d="M18.21,111.32v6.07h2.74v-6.07h-2.74ZM19.52,112.48h.13v3.74h-.13v-3.74Z"/>
        <path id="stair-96" class="st2" d="M14.18,69.46v5.85h2.74v-5.85h-2.74ZM15.48,70.59h.13v3.6h-.13v-3.6Z"/>
        <path id="stair-97" class="st2" d="M52.09,93.47v6.05h2.74v-6.05h-2.74ZM53.39,94.63h.13v3.72h-.13v-3.72Z"/>
        <path id="stair-100" class="st2" d="M70.33,93.47v6.05h2.74v-6.05h-2.74ZM71.64,94.63h.13v3.72h-.13v-3.72Z"/>
        <path id="stair-101" class="st2" d="M96.73,21.85h-5.85v2.74h5.85v-2.74ZM95.6,23.16v.13h-3.6v-.13h3.6Z"/>
        <path id="stair-129" class="st2" d="M46.68,43.54v6.05h2.74v-6.05h-2.74ZM47.99,44.7h.13v3.73h-.13v-3.73Z"/>
      </g>
    </g>
    <g id="Wall-2">
      <path class="st0" d="M28.05,31.87v-.46h-2.78"/>
      <path class="st0" d="M28.05,33.26v5.62h-2.78"/>
      <path class="st0" d="M23.26,55.89v-1.39"/>
      <path class="st0" d="M24.42,55.89v-1.39"/>
      <path class="st0" d="M25.57,55.89v-1.39"/>
      <path class="st0" d="M20.56,55.01v-3.66h-.46"/>
      <path class="st0" d="M19.08,51.34h-.46"/>
    </g>
  </g>
</svg>